HIERARCHY
ROOT joint_Root
{
	OFFSET 0.0 0.0 0.0
	CHANNELS 6 Xposition Yposition Zposition Zrotation Xrotation Yrotation 
	JOINT Hips
	{
		OFFSET -17.1583 93.1646 452.98
		CHANNELS 6 Xposition Yposition Zposition Zrotation Xrotation Yrotation 
		JOINT Spine
		{
			OFFSET 15.7357 0.0 0.0
			CHANNELS 6 Xposition Yposition Zposition Zrotation Xrotation Yrotation 
			JOINT Chest
			{
				OFFSET 8.98455 -0.406207 0.0
				CHANNELS 6 Xposition Yposition Zposition Zrotation Xrotation Yrotation 
				JOINT Neck
				{
					OFFSET 16.3773 0.0 0.0
					CHANNELS 6 Xposition Yposition Zposition Zrotation Xrotation Yrotation 
					JOINT Head
					{
						OFFSET 6.45672 0.0 0.0
						CHANNELS 6 Xposition Yposition Zposition Zrotation Xrotation Yrotation 
						End Site
						{
							OFFSET 0.0 0.0 0.0
						}
					}
				}
				JOINT Shoulder_L
				{
					OFFSET 12.9942 -0.242716 4.98039
					CHANNELS 6 Xposition Yposition Zposition Zrotation Xrotation Yrotation 
					JOINT UpperArm_L
					{
						OFFSET 5.34809 0.0 0.0
						CHANNELS 6 Xposition Yposition Zposition Zrotation Xrotation Yrotation 
						JOINT LowerArm_L
						{
							OFFSET 24.3286 1.87007e-05 0.0
							CHANNELS 6 Xposition Yposition Zposition Zrotation Xrotation Yrotation 
							JOINT Hand_L
							{
								OFFSET 22.2916 0.0 0.0
								CHANNELS 6 Xposition Yposition Zposition Zrotation Xrotation Yrotation 
								End Site
								{
									OFFSET 0.0 0.0 0.0
								}
							}
						}
					}
				}
				JOINT Shoulder_R
				{
					OFFSET 12.9945 -0.242716 -4.98039
					CHANNELS 6 Xposition Yposition Zposition Zrotation Xrotation Yrotation 
					JOINT UpperArm_R
					{
						OFFSET -5.34813 0.0 0.0
						CHANNELS 6 Xposition Yposition Zposition Zrotation Xrotation Yrotation 
						JOINT LowerArm_R
						{
							OFFSET -24.3289 0.000322201 0.0
							CHANNELS 6 Xposition Yposition Zposition Zrotation Xrotation Yrotation 
							JOINT Hand_R
							{
								OFFSET -22.2915 -0.000108084 0.0
								CHANNELS 6 Xposition Yposition Zposition Zrotation Xrotation Yrotation 
								End Site
								{
									OFFSET 0.0 0.0 0.0
								}
							}
						}
					}
				}
			}
		}
		JOINT UpperLeg_L
		{
			OFFSET -2.19248 -6.46944 0.0
			CHANNELS 6 Xposition Yposition Zposition Zrotation Xrotation Yrotation 
			JOINT LowerLeg_L
			{
				OFFSET 39.0811 0.0 -1.23785e-05
				CHANNELS 6 Xposition Yposition Zposition Zrotation Xrotation Yrotation 
				JOINT Foot_L
				{
					OFFSET 40.9854 0.0 -1.26872e-05
					CHANNELS 6 Xposition Yposition Zposition Zrotation Xrotation Yrotation 
					JOINT Toes_L
					{
						OFFSET 11.7543 0.0 0.0
						CHANNELS 6 Xposition Yposition Zposition Zrotation Xrotation Yrotation 
						End Site
						{
							OFFSET 0.0 0.0 0.0
						}
					}
				}
			}
		}
		JOINT UpperLeg_R
		{
			OFFSET -2.19251 6.46944 0.0
			CHANNELS 6 Xposition Yposition Zposition Zrotation Xrotation Yrotation 
			JOINT LowerLeg_R
			{
				OFFSET -39.0811 -0.00228153 -0.0401928
				CHANNELS 6 Xposition Yposition Zposition Zrotation Xrotation Yrotation 
				JOINT Foot_R
				{
					OFFSET -40.9854 0.0 0.0
					CHANNELS 6 Xposition Yposition Zposition Zrotation Xrotation Yrotation 
					JOINT Toes_R
					{
						OFFSET -11.7543 0.0 0.0
						CHANNELS 6 Xposition Yposition Zposition Zrotation Xrotation Yrotation 
						End Site
						{
							OFFSET 0.0 0.0 0.0
						}
					}
				}
			}
		}
	}
}
MOTION
Frames:	9
Frame Time:	0.0333333
0.000000 0.000000 0.000000 0.000000 0.000000 -0.000000 -1.208870 93.232100 -1.179670 86.981000 0.721859 -1.984980 15.735700 0.000005 -0.000001 83.370600 87.527100 -81.535100 8.984550 -0.406207 -0.000000 -2.838880 -0.740541 3.652990 16.377300 -0.000001 -0.000001 -0.345435 1.407430 -2.353010 6.456720 -0.000001 -0.000000 2.060490 0.520581 0.211685 12.994200 -0.242716 4.980390 -92.229700 7.291860 -72.945900 5.348090 -0.000007 -0.000001 -76.434600 10.674800 1.870460 24.328600 0.000019 0.000005 12.916200 24.751900 -28.710900 22.291600 -0.000001 0.000005 -1.401270 4.986470 7.606100 12.994500 -0.242716 -4.980390 88.480600 5.284210 -73.932600 -5.348130 -0.000001 -0.000004 -71.666500 20.591300 -1.903610 -24.328900 0.000322 -0.000009 0.302137 0.838842 -19.859700 -22.291500 -0.000108 -0.000004 3.849370 5.275070 0.761228 -2.192480 -6.469440 -0.000000 -176.109000 0.190334 -5.742490 39.081100 -0.000007 -0.000012 0.138139 -0.415538 18.388800 40.985400 -0.000006 -0.000013 0.496823 8.602760 -70.113000 11.754300 -0.000000 0.000003 0.000184 0.164476 -9.905910 -2.192510 6.469440 -0.000001 -175.111000 7.451680 179.847000 -39.081100 -0.002282 -0.040193 0.001117 0.013423 9.401970 -40.985400 0.000008 0.000006 -3.788500 2.773950 -66.167900 -11.754300 -0.000006 -0.000006 -0.009681 0.268902 -5.649260
0.000000 0.000000 0.000000 0.000000 0.000000 -0.000000 -1.289840 93.241300 -1.299970 86.978800 0.919680 -1.883690 15.735700 0.000005 -0.000001 83.194100 87.428200 -81.357600 8.984550 -0.406207 -0.000000 -2.643700 -0.776079 3.655290 16.377300 -0.000001 -0.000001 -0.520658 1.221940 -2.124230 6.456720 -0.000001 -0.000000 1.707720 0.358042 0.520474 12.994200 -0.242716 4.980390 -92.326300 7.575740 -72.874300 5.348090 -0.000007 -0.000001 -76.031700 7.583480 1.492540 24.328600 0.000019 0.000005 13.046600 23.846000 -29.821200 22.291600 -0.000001 0.000005 -1.399040 4.970410 7.942100 12.994500 -0.242716 -4.980390 88.394600 5.533860 -73.794600 -5.348130 -0.000001 -0.000004 -70.769200 19.680200 -2.260090 -24.328900 0.000322 -0.000009 0.945442 2.456000 -21.077200 -22.291500 -0.000108 -0.000004 2.451240 5.261060 1.141220 -2.192480 -6.469440 -0.000000 -176.042000 0.295086 -5.761060 39.081100 -0.000007 -0.000012 0.137588 -0.413070 18.422500 40.985400 -0.000006 -0.000013 0.412698 8.706170 -70.042300 11.754300 -0.000000 0.000003 0.000307 0.162280 -9.995090 -2.192510 6.469440 -0.000001 -175.044000 7.526200 179.877000 -39.081100 -0.002282 -0.040193 0.000877 0.014910 9.378790 -40.985400 0.000008 0.000006 -3.738920 2.627530 -66.127500 -11.754300 -0.000006 -0.000006 -0.009809 0.269874 -5.609520
0.000000 0.000000 0.000000 0.000000 0.000000 -0.000000 -1.352560 93.234200 -1.413070 87.013200 1.032210 -1.793330 15.735700 0.000005 -0.000001 83.433800 87.335900 -81.601500 8.984550 -0.406207 -0.000000 -2.457820 -0.772489 3.647800 16.377300 -0.000001 -0.000001 -0.663340 1.023920 -1.875340 6.456720 -0.000001 -0.000000 1.395160 0.199085 0.913831 12.994200 -0.242716 4.980390 -92.398700 7.753050 -72.749500 5.348090 -0.000007 -0.000001 -75.426000 5.135290 1.092910 24.328600 0.000019 0.000005 13.954000 23.251700 -32.186300 22.291600 -0.000001 0.000005 -0.735049 4.972390 7.901490 12.994500 -0.242716 -4.980390 88.352600 5.656470 -73.732900 -5.348130 -0.000001 -0.000004 -69.766800 18.179600 -2.519730 -24.328900 0.000322 -0.000009 1.524860 3.584140 -23.072700 -22.291500 -0.000108 -0.000004 1.170930 5.244790 1.571280 -2.192480 -6.469440 -0.000000 -176.044000 0.342450 -5.825070 39.081100 -0.000007 -0.000012 0.140574 -0.419738 18.516400 40.985400 -0.000006 -0.000013 0.509832 8.734640 -69.995600 11.754300 -0.000000 0.000003 0.000337 0.161747 -10.016700 -2.192510 6.469440 -0.000001 -174.996000 7.634640 179.764000 -39.081100 -0.002282 -0.040193 0.002399 0.005547 9.620240 -40.985400 0.000008 0.000006 -3.422790 2.564660 -66.231100 -11.754300 -0.000006 -0.000006 -0.009819 0.269948 -5.606480
0.000000 0.000000 0.000000 0.000000 0.000000 -0.000000 -1.420180 93.235600 -1.531400 87.029700 1.233230 -1.603340 15.735700 0.000005 -0.000001 83.818000 87.227400 -81.982600 8.984550 -0.406207 -0.000000 -2.238390 -0.757128 3.655760 16.377300 -0.000001 -0.000001 -0.733164 0.807329 -1.592540 6.456720 -0.000001 -0.000000 1.118540 -0.054003 1.397120 12.994200 -0.242716 4.980390 -92.435100 7.851790 -72.709400 5.348090 -0.000007 -0.000001 -74.724800 2.605710 0.626389 24.328600 0.000019 0.000005 15.611600 22.902100 -35.677700 22.291600 -0.000001 0.000005 0.390834 4.953460 8.291520 12.994500 -0.242716 -4.980390 88.323800 5.732970 -73.672200 -5.348130 -0.000001 -0.000004 -68.673900 15.647300 -2.541340 -24.328900 0.000322 -0.000009 2.367930 4.856250 -26.039200 -22.291500 -0.000108 -0.000004 0.155909 5.224950 2.087550 -2.192480 -6.469440 -0.000000 -175.982000 0.474928 -5.804400 39.081100 -0.000007 -0.000012 0.137965 -0.408965 18.642000 40.985400 -0.000006 -0.000013 0.309830 8.855420 -69.972400 11.754300 -0.000000 0.000003 0.000248 0.163338 -9.952100 -2.192510 6.469440 -0.000001 -174.968000 7.890820 179.820000 -39.081100 -0.002282 -0.040193 0.002571 0.004477 9.741440 -40.985400 0.000008 0.000006 -3.340820 2.570470 -66.287600 -11.754300 -0.000006 -0.000006 -0.009831 0.270040 -5.602730
0.000000 0.000000 0.000000 0.000000 0.000000 -0.000000 -1.509000 93.222000 -1.647380 87.023400 1.502670 -1.439680 15.735700 0.000005 -0.000001 83.746100 87.117700 -81.891600 8.984550 -0.406207 -0.000000 -2.020460 -0.786086 3.694640 16.377300 -0.000001 -0.000001 -0.862999 0.562992 -1.341520 6.456720 -0.000001 -0.000000 0.917787 -0.280294 1.958140 12.994200 -0.242716 4.980390 -92.432800 7.830370 -72.680600 5.348090 -0.000007 -0.000001 -74.037900 -0.088584 0.090992 24.328600 0.000019 0.000005 18.078300 22.508000 -40.452400 22.291600 -0.000001 0.000005 1.479270 4.913880 9.098630 12.994500 -0.242716 -4.980390 88.333800 5.687580 -73.642300 -5.348130 -0.000001 -0.000004 -67.623800 12.376200 -2.343360 -24.328900 0.000322 -0.000009 3.405570 5.855920 -30.250000 -22.291500 -0.000108 -0.000004 -0.356240 5.189880 2.972960 -2.192480 -6.469440 -0.000000 -175.910000 0.672075 -5.868470 39.081100 -0.000007 -0.000012 0.141548 -0.414717 18.845600 40.985400 -0.000006 -0.000013 0.341668 8.961570 -69.965700 11.754300 -0.000000 0.000003 0.000310 0.162227 -9.997230 -2.192510 6.469440 -0.000001 -174.881000 8.170270 179.802000 -39.081100 -0.002282 -0.040193 0.003450 -0.000634 9.933880 -40.985400 0.000008 0.000006 -3.041920 2.545500 -66.329800 -11.754300 -0.000006 -0.000006 -0.009460 0.267222 -5.717950
0.000000 0.000000 0.000000 0.000000 0.000000 -0.000000 -1.588220 93.215600 -1.784870 86.985300 1.754710 -1.190900 15.735700 0.000005 -0.000001 84.099000 86.981500 -82.193300 8.984550 -0.406207 -0.000000 -1.745200 -0.778625 3.798600 16.377300 -0.000001 -0.000001 -0.977947 0.342381 -1.129650 6.456720 -0.000001 -0.000000 0.670335 -0.478693 2.476680 12.994200 -0.242716 4.980390 -92.441100 7.862360 -72.690700 5.348090 -0.000007 -0.000001 -73.319200 -3.300410 -0.478621 24.328600 0.000019 0.000005 21.598700 22.044100 -46.524900 22.291600 -0.000001 0.000005 2.403230 4.876610 9.837700 12.994500 -0.242716 -4.980390 88.327900 5.681280 -73.569800 -5.348130 -0.000001 -0.000004 -66.541300 7.632810 -1.959730 -24.328900 0.000322 -0.000009 5.594180 7.763430 -35.935900 -22.291500 -0.000108 -0.000004 -1.263560 5.147100 4.014880 -2.192480 -6.469440 -0.000000 -175.805000 0.791491 -5.863210 39.081100 -0.000007 -0.000012 0.143436 -0.415297 19.054200 40.985400 -0.000006 -0.000013 0.355689 9.081630 -70.005300 11.754300 -0.000000 0.000003 0.000144 0.165159 -9.878160 -2.192510 6.469440 -0.000001 -174.791000 8.298590 179.854000 -39.081100 -0.002282 -0.040193 0.003904 -0.003166 10.132300 -40.985400 0.000008 0.000006 -3.076910 2.368310 -66.399900 -11.754300 -0.000006 -0.000006 -0.009768 0.269565 -5.622140
0.000000 0.000000 0.000000 0.000000 0.000000 -0.000000 -1.671070 93.196900 -1.921770 86.958300 1.984980 -0.990932 15.735700 0.000005 -0.000001 83.817300 86.865700 -81.840700 8.984550 -0.406207 -0.000000 -1.516430 -0.835002 3.940990 16.377300 -0.000001 -0.000001 -1.003760 0.207164 -0.957403 6.456720 -0.000001 -0.000000 0.394057 -0.581024 2.904440 12.994200 -0.242716 4.980390 -92.439600 7.872630 -72.722000 5.348090 -0.000007 -0.000001 -72.766100 -6.970600 -1.161140 24.328600 0.000019 0.000005 26.028400 21.125500 -53.567500 22.291600 -0.000001 0.000005 2.871110 4.815270 11.026100 12.994500 -0.242716 -4.980390 88.337400 5.627740 -73.511700 -5.348130 -0.000001 -0.000004 -65.710600 1.858430 -1.678830 -24.328900 0.000322 -0.000009 8.220180 9.040640 -42.590300 -22.291500 -0.000108 -0.000004 -1.502370 5.090740 5.321510 -2.192480 -6.469440 -0.000000 -175.715000 0.900949 -5.925830 39.081100 -0.000007 -0.000012 0.147911 -0.421689 19.329000 40.985400 -0.000006 -0.000013 0.344678 9.235140 -70.026600 11.754300 -0.000000 0.000003 0.000156 0.164962 -9.886180 -2.192510 6.469440 -0.000001 -174.672000 8.402910 179.820000 -39.081100 -0.002282 -0.040193 0.005415 -0.011318 10.396100 -40.985400 0.000008 0.000006 -2.736450 2.163230 -66.522100 -11.754300 -0.000006 -0.000006 -0.009636 0.268568 -5.662940
0.000000 0.000000 0.000000 0.000000 0.000000 -0.000000 -1.750750 93.179000 -2.035840 86.948400 2.261260 -0.765144 15.735700 0.000005 -0.000001 82.925500 86.765800 -80.872200 8.984550 -0.406207 -0.000000 -1.326440 -0.959315 4.094150 16.377300 -0.000001 -0.000001 -0.938042 0.131173 -0.795845 6.456720 -0.000001 -0.000000 0.167018 -0.576906 3.279980 12.994200 -0.242716 4.980390 -92.407500 7.820690 -72.830500 5.348090 -0.000007 -0.000001 -72.454500 -11.104400 -2.040370 24.328600 0.000019 0.000005 30.139500 18.914700 -60.821900 22.291600 -0.000001 0.000005 2.870230 4.751330 12.223700 12.994500 -0.242716 -4.980390 88.347700 5.568260 -73.443900 -5.348130 -0.000001 -0.000004 -65.130800 -4.389920 -1.529050 -24.328900 0.000322 -0.000009 11.120600 9.490270 -50.005400 -22.291500 -0.000108 -0.000004 -0.940346 5.031520 6.638620 -2.192480 -6.469440 -0.000000 -175.637000 1.111150 -5.951810 39.081100 -0.000007 -0.000012 0.150078 -0.422041 19.575600 40.985400 -0.000006 -0.000013 0.300260 9.323670 -70.031000 11.754300 -0.000000 0.000003 0.000275 0.162853 -9.971790 -2.192510 6.469440 -0.000001 -174.579000 8.525360 179.845000 -39.081100 -0.002282 -0.040193 0.007012 -0.019566 10.635000 -40.985400 0.000008 0.000006 -2.484820 1.965940 -66.643500 -11.754300 -0.000006 -0.000006 -0.009642 0.268608 -5.661260
0.000000 0.000000 0.000000 0.000000 0.000000 -0.000000 -1.825350 93.167400 -2.153730 86.915100 2.458880 -0.488727 15.735700 0.000005 -0.000001 82.066600 86.675900 -79.917900 8.984550 -0.406207 -0.000000 -1.157580 -1.084630 4.284800 16.377300 -0.000001 -0.000001 -0.763505 0.134415 -0.629960 6.456720 -0.000001 -0.000000 -0.028819 -0.405118 3.600260 12.994200 -0.242716 4.980390 -92.348500 7.638800 -72.853800 5.348090 -0.000007 -0.000001 -72.419900 -15.184900 -3.191320 24.328600 0.000019 0.000005 33.188300 15.438500 -67.852200 22.291600 -0.000001 0.000005 2.690490 4.702570 13.111600 12.994500 -0.242716 -4.980390 88.351500 5.546830 -73.419300 -5.348130 -0.000001 -0.000004 -64.950300 -11.118100 -1.692670 -24.328900 0.000322 -0.000009 13.076300 8.462860 -57.646800 -22.291500 -0.000108 -0.000004 0.806331 4.970750 7.922910 -2.192480 -6.469440 -0.000000 -175.546000 1.268590 -5.910870 39.081100 -0.000007 -0.000012 0.151077 -0.419530 19.804700 40.985400 -0.000006 -0.000013 0.218631 9.410420 -70.043700 11.754300 -0.000000 0.000003 0.000239 0.163508 -9.945230 -2.192510 6.469440 -0.000001 -174.502000 8.670040 179.959000 -39.081100 -0.002282 -0.040193 0.007453 -0.021587 10.794200 -40.985400 0.000008 0.000006 -2.317300 1.842850 -66.700200 -11.754300 -0.000006 -0.000006 -0.009577 0.268120 -5.681240
